<svg xmlns="http://www.w3.org/2000/svg" viewBox="0 0 1600 216">
  <path fill="#002C5F" d="M149.3 64.9l-37 122.9 66.9 85.3 189.1 5 189.1-5 66.9-85.3-37-122.9-219 93.9-219-93.9zm65.9 166.2l-22.7 31.9 175.8 4.7 175.7-4.7-22.7-31.9-153.1 59.9-153-59.9zm153.1-42.6l115.6-45.2 16.6-55.1-132.2 56.7L236 88.2l16.6 55.1 115.7 45.2zM805 92h-56l-20 114h29l13-74h57l-13 74h29L863 92zM700 92h-29l-30 114h57c32 0 45-12 50-38l12-45c5-25-3-31-30-31zm-6 24l-11 46c-2 8-5 13-16 13h-16l14-59h19c11 0 11 0 10 7v-.3zM928 92h-29l-20 69c-4 15-11 20-22 20s-15-5-11-20l18-69h-29l-21 72c-7 27 5 44 38 44s49-17 56-44l20-72zM1066 92h-29l-24 57-19-57h-31l-20 114h29l11-66 22 66h21l33-66-12 66h29l20-114zM1131 92h-47l-20 114h47c38 0 54-18 63-52l12-46c9-34 0-53-54-53v-.3h-1zm-13 24h18c19 0 20 6 16 23l-10 44c-4 16-9 22-26 22h-17l19-89zM1281 92h-26l-37 114h29l8-27h52l-9 27h30l-45-114h-.3v.3zm-20 66l23-66h2l7 66h-32zM1361 92H1332l-20 114H1341l20-114z"/>
</svg>